<?xml version="1.0" encoding="UTF-8" standalone="no"?>
<svg
   xmlns:dc="http://purl.org/dc/elements/1.1/"
   xmlns:cc="http://creativecommons.org/ns#"
   xmlns:rdf="http://www.w3.org/1999/02/22-rdf-syntax-ns#"
   xmlns:svg="http://www.w3.org/2000/svg"
   xmlns="http://www.w3.org/2000/svg"
   xmlns:sodipodi="http://sodipodi.sourceforge.net/DTD/sodipodi-0.dtd"
   xmlns:inkscape="http://www.inkscape.org/namespaces/inkscape"
   width="400"
   height="1200"
   version="1.1"
   id="svg80"
   sodipodi:docname="enterpreneurs.svg"
   inkscape:version="0.92.3 (unknown)">
  <defs
     id="defs84" />
  <sodipodi:namedview
     pagecolor="#ffffff"
     bordercolor="#666666"
     borderopacity="1"
     objecttolerance="10"
     gridtolerance="10"
     guidetolerance="10"
     inkscape:pageopacity="0"
     inkscape:pageshadow="2"
     inkscape:window-width="1865"
     inkscape:window-height="1056"
     id="namedview82"
     showgrid="false"
     inkscape:zoom="0.54979847"
     inkscape:cx="36.454105"
     inkscape:cy="631.47391"
     inkscape:window-x="55"
     inkscape:window-y="24"
     inkscape:window-maximized="1"
     inkscape:current-layer="g78" />
  <title
     id="title71">BIGGER Version</title>
  <metadata
     id="metadata7">image/svg+xml<rdf:RDF>
  <cc:Work
     rdf:about="">
    <dc:format>image/svg+xml</dc:format>
    <dc:type
       rdf:resource="http://purl.org/dc/dcmitype/StillImage" />
    <dc:title>BIGGER Version</dc:title>
  </cc:Work>
</rdf:RDF>
</metadata>
  <g
     id="g78">
    <title
       id="title74">Layer 1</title>
    <g
       id="g820">
      <g
         transform="translate(-619.20312,1.2599806)"
         id="layer1">
        <path
           sodipodi:nodetypes="cccccccccccccccccccccccsccccccccccccccccsccccccccccccccccccccccccccccccccccccccccscccccccccsccccccccccccccccccsccccccccccccccccccccccccccccccccccccccscccsccccccccccccccccccssccccc"
           style="fill:#000000"
           inkscape:connector-curvature="0"
           id="path2689"
           d="m 875.85278,1197.4969 c -0.96472,-0.4046 -3.74072,-3.6513 -6.16827,-7.2153 -3.54486,-5.2032 -5.34131,-7.0741 -9.12122,-9.4973 -5.78772,-3.7109 -8.1643,-6.3719 -9.67987,-10.839 -1.72381,-5.078 -1.54815,-14.4933 0.38513,-20.6897 1.0719,-3.435 1.30268,-5.0571 0.74915,-5.2594 -1.40033,-0.5101 -3.59961,-3.474 -5.33643,-7.1904 -1.643,-3.5162 -1.69415,-4.1997 -2.13403,-28.7815 -0.5227,-29.2008 0.76971,-56.6813 3.65686,-77.7543 5.16034,-37.66532 5.89392,-44.78184 5.8927,-57.17954 -0.002,-15.67994 -1.57745,-64.87769 -2.42181,-75.59949 -0.1496,-1.89948 -0.4856,-6.56214 -0.74677,-10.36133 -0.26117,-3.79883 -0.58447,-8.25458 -0.7182,-9.90112 -0.25482,-3.13294 -1.50494,-20.29346 -2.10297,-28.85767 -0.19158,-2.74426 -0.65081,-7.75207 -1.02075,-11.12933 -0.36975,-3.37665 -1.16894,-11.14734 -1.77551,-17.2688 -0.60651,-6.12067 -1.24085,-12.33777 -1.41003,-13.81494 -0.16932,-1.47778 -0.80079,-7.86694 -1.40302,-14.19885 -0.60181,-6.33216 -1.23578,-12.72132 -1.40894,-14.19904 -0.33581,-2.86823 -1.78002,-18.23053 -3.78808,-40.29425 -0.88001,-9.6665 -3.77362,-29.59845 -5.68323,-39.14264 -2.4671,-12.33533 -5.71228,-24.40436 -6.97577,-25.94525 -0.27832,-0.33954 -0.71533,8.98566 -0.9707,20.72272 -0.97919,44.95868 -2.75195,103.77728 -4.46039,147.97882 -1.11078,28.73877 -1.47223,97.92541 -0.56549,108.24261 0.46301,5.27106 1.65436,20.97303 2.15283,28.37378 0.22772,3.37726 1.0401,9.42102 1.80548,13.43121 0.76557,4.01026 3.57086,18.69431 6.23352,32.63181 7.68732,40.2332 7.89478,44.0189 4.86182,88.6345 -1.39038,20.4552 -1.48743,21.1587 -3.1463,22.7975 l -1.71155,1.6913 1.77295,2.8576 c 2.4245,3.9082 2.67212,5.4223 2.28497,13.9718 -0.54937,12.1402 -3.60681,17.9192 -10.03735,18.974 -4.65033,0.7628 -5.27075,1.6023 -6.24091,8.4418 -1.00122,7.0623 -1.50531,8.5518 -3.23578,9.5645 -0.69329,0.4061 -5.78656,1.8396 -11.31909,3.1861 -9.52405,2.3175 -10.99121,2.4645 -27.59985,2.7531 l -17.54084,0.3048 -2.93701,-2.762 c -3.44018,-3.2356 -5.13183,-8.3591 -5.13183,-15.5415 0,-4.0428 0.38134,-5.2433 3.62359,-11.3949 6.88941,-13.0712 13.20429,-27.4553 12.47486,-28.4165 -0.3772,-0.4973 -3.12769,-1.067 -6.11151,-1.2661 -10.7265,-0.7153 -18.51148,-5.2826 -19.35248,-11.353 -0.20404,-1.4739 -0.86963,-13.2135 -1.47864,-26.0887 -0.6087,-12.875 -2.04187,-42.4045 -3.18512,-65.6215 -1.14282,-23.2173 -2.71198,-55.51023 -3.4873,-71.76255 -1.60126,-33.56794 -1.87464,-37.85016 -5.68702,-89.03083 -1.52502,-20.4729 -3.10205,-39.29614 -3.50415,-41.82885 -1.45935,-9.18982 -9.52154,-46.61487 -12.56573,-58.33039 -3.40387,-13.10089 -8.80585,-41.77191 -16.19696,-85.96112 -1.86493,-11.15082 -1.78827,-10.94848 -4.3761,-11.50708 -3.5976,-0.77618 -5.97534,-1.97528 -6.41742,-3.23547 -0.4491,-1.28064 0.47669,-10.70709 2.05762,-20.94647 0.5542,-3.58832 1.65918,-11.18653 2.4563,-16.8852 0.79705,-5.69867 1.58282,-11.2724 1.74646,-12.38592 0.19842,-1.34961 -0.1659,-2.48364 -1.09278,-3.40112 -2.30999,-2.28681 -7.47931,-11.35895 -14.80438,-25.98151 -8.22278,-16.41388 -8.09753,-15.82575 -10.38641,-48.79736 -3.6294,-52.28617 -4.98377,-69.9635 -5.65344,-73.79065 -1.32984,-7.5994 -2.80799,-36.14041 -3.2544,-62.83161 -0.49481,-29.59137 -0.82989,-25.3692 6.02606,-75.97711 0.77204,-5.69891 2.05146,-15.19678 2.84369,-21.10654 5.42719,-40.4967 7.65479,-51.65411 12.35193,-61.86673 3.66217,-7.96225 7.88092,-11.07652 23.80597,-17.57498 20.01752,-8.1682 53.68939,-23.57684 57.94812,-26.5178 1.64984,-1.13898 3.79748,-3.9634 5.914,-7.77631 1.82788,-3.2934 6.15509,-9.39438 9.61603,-13.55815 3.46118,-4.16362 6.69458,-8.65509 7.18524,-9.9812 0.49091,-1.32608 1.08618,-7.33118 1.32275,-13.34467 l 0.43018,-10.93353 -2.79736,-4.73403 c -1.53852,-2.60366 -3.10578,-5.98857 -3.48334,-7.52183 -0.48596,-1.97469 -1.58124,-3.47813 -3.75391,-5.15346 -3.75885,-2.89786 -6.56158,-6.79915 -7.07934,-9.85354 -0.53443,-3.15666 -1.6947,-13.53988 -2.18488,-19.56193 -1.16693,-14.326274 -1.67028,-18.303989 -2.67096,-21.106547 -2.12884,-5.961693 -1.1997,-33.999001 1.43714,-43.364159 1.03467,-3.674679 2.17456,-5.290112 8.80639,-12.476421 4.19001,-4.540289 9.9549,-9.98 12.81098,-12.088189 4.35394,-3.213921 5.71197,-3.83315 8.40552,-3.83315 2.03051,0 4.47815,-0.701691 6.65283,-1.90713 10.54773,-5.8466 18.93915,-7.92974 25.11395,-6.23436 2.21356,0.6079 5.76166,1.32685 7.88416,1.59772 7.32599,0.93482 15.6889,2.8101 17.76129,3.98201 2.73627,1.547881 20.42206,20.46947 22.42474,23.99157 1.70337,2.99671 1.68762,2.712851 2.08576,37.342699 l 0.1773,15.408218 2.05707,3.254471 2.05725,3.254471 -0.85632,11.946127 c -1.33392,18.60897 -1.86243,20.53157 -8.18646,29.78167 -2.02002,2.95497 -3.87573,6.40863 -4.12409,7.67494 -0.24847,1.26653 0.04,5.41109 0.64069,9.21015 0.89496,5.6616 1.68872,8.00502 4.40112,12.99188 3.72357,6.84622 9.58301,14.10895 15.06378,18.67108 4.43927,3.69535 27.45783,14.85271 36.14075,17.51802 3.37225,1.03502 8.97266,2.74681 12.44556,3.8035 38.14325,11.60515 39.09839,11.96916 43.20062,16.45631 3.00244,3.28429 3.41522,4.20037 4.79889,10.6466 3.75574,17.49942 6.12689,44.72027 9.87268,113.32434 2.79083,51.12735 2.94714,57.19387 2.64825,102.8461 -0.31121,47.51422 -0.44915,50.0466 -4.0852,75.21582 -4.83942,33.49878 -9.78503,50.2221 -19.46472,65.82141 -1.89643,3.05615 -5.26667,8.6546 -7.48926,12.44128 l -4.04108,6.88434 1.84418,19.97833 c 1.0144,10.98798 1.8418,23.86377 1.83905,28.61286 l -0.005,8.63458 h -2.07074 c -1.13843,0 -3.60321,0.35944 -5.4765,0.79895 l -3.40619,0.79895 0.12885,14.74286 c 0.23693,27.13019 -0.83082,51.81476 -2.86127,66.16583 -1.0155,7.17639 -2.14832,17.88342 -2.51758,23.79315 -0.88013,14.09748 -1.63507,23.58997 -4.12024,51.80664 -2.86786,32.55793 -3.43603,50.11682 -4.01294,123.95221 -0.65912,84.40281 -0.65765,87.89981 0.0575,137.81841 0.47009,32.8504 0.41656,43.0446 -0.23407,44.3743 -1.02814,2.1011 -4.96247,4.0122 -13.54779,6.5812 -10.62329,3.1781 -10.70752,4.5266 -1.19226,19.0836 7.93579,12.1413 11.74719,20.0877 12.36309,25.7767 0.52326,4.8334 -0.29943,6.3152 -6.21759,11.1987 -6.08532,5.0212 -9.42736,6.4242 -18.38488,7.7166 -8.61768,1.243 -31.3462,1.4132 -34.10755,0.2548 z M 860.67169,293.07916 c 1.00757,-5.06567 2.30213,-12.31851 2.87653,-16.11761 2.65179,-17.54352 8.91138,-66.51947 8.55206,-66.91265 -0.0894,-0.0978 -3.14935,4.68503 -6.80011,10.62859 -3.65088,5.94385 -7.37427,11.44093 -8.27502,12.21611 -1.60559,1.38174 -1.69434,1.37024 -4.56055,-0.59679 -1.60754,-1.10333 -5.48077,-4.53866 -8.60632,-7.63394 l -5.68335,-5.62765 -5.47052,6.57325 -5.46997,6.57343 4.30267,6.79147 c 2.36609,3.73529 4.90588,8.45738 5.6438,10.49324 0.73736,2.0363 3.29413,8.19211 5.68121,13.67966 6.36597,14.63397 12.3042,30.01962 13.71606,35.53809 0.68079,2.66076 1.46827,4.56039 1.74964,4.22134 0.28174,-0.33908 1.3363,-4.76111 2.34387,-9.82654 z m -57.78937,-7.733 c 0,-4.54395 2.9339,-20.47208 6.06037,-32.89948 1.38635,-5.51277 2.92273,-12.26246 3.41394,-14.99934 0.88794,-4.95326 0.88269,-4.99164 -1.17291,-8.25983 -1.13605,-1.80587 -2.39411,-4.31541 -2.79639,-5.57692 -0.40198,-1.26144 -0.95972,-2.29351 -1.23963,-2.29351 -0.27978,0 -4.08178,4.33313 -8.44873,9.62942 -4.86181,5.89606 -8.36975,9.53905 -9.04785,9.39652 -0.60888,-0.12856 -1.94629,-2.07003 -2.97174,-4.31444 -2.24701,-4.91979 -3.44305,-6.44492 -3.44305,-4.39081 0,3.61044 11.97528,42.67631 16.55261,53.99763 1.91608,4.73963 3.09338,4.62925 3.09338,-0.28924 z m 4.76795,-69.01791 c 3.56348,-4.64325 6.67505,-9.2566 6.91455,-10.25148 0.37823,-1.57143 -1.71314,-4.16019 -15.92804,-19.72036 -8.99994,-9.85119 -16.59241,-17.75618 -16.87323,-17.56658 -0.28052,0.18972 -0.72437,1.73407 -0.98657,3.43196 -0.3288,2.1277 -1.54816,4.45207 -3.92456,7.47915 -3.96863,5.0558 -3.97388,3.28945 0.062,20.12584 1.46716,6.12105 3.03442,13.20111 3.4826,15.73395 0.4477,2.53285 2.60559,8.69598 4.79462,13.69585 l 3.97998,9.09074 5.99951,-6.78824 c 3.30029,-3.7335 8.91553,-10.58725 12.47913,-15.23083 z m 55.33081,4.98883 c 9.33661,-14.71181 9.75647,-15.83252 11.06982,-29.54903 1.5868,-16.56918 1.62275,-16.19945 -2.06121,-21.11182 -1.73859,-2.31878 -3.47327,-4.21598 -3.85462,-4.21598 -0.38092,0 -7.87744,7.45214 -16.65942,16.56002 -8.78198,9.10788 -17.22168,17.7938 -18.75495,19.30181 -2.70483,2.66032 -2.75689,2.80464 -1.75384,4.85647 1.15124,2.35581 15.41406,17.91329 20.32861,22.17461 1.73645,1.50549 3.59686,2.64925 4.13385,2.5414 0.53656,-0.10802 3.93518,-4.85871 7.55176,-10.55748 z" />
      </g>
      <path
         sodipodi:nodetypes="ccccccccc"
         inkscape:connector-curvature="0"
         id="path121"
         d="m 194.27914,234.59704 c 0,0 -3.98494,-9.94186 0,0 l -10.59994,52.0091 -3.09349,37.81049 30.10598,129.49529 27.91701,-149.91939 c -14.55047,-44.91168 -22.57035,-59.6688 -30.57738,-70.55065 m 0,0 -13.75218,1.15516 -7.19485,-14.56377 8.52937,-13.17121 15.08598,-0.46419 8.99356,12.99715 -11.66188,14.04686 -13.75218,1.15516"
         style="fill:#ff0000;stroke:#000000;stroke-width:1px;stroke-linecap:butt;stroke-linejoin:miter;stroke-opacity:1" />
    </g>
  </g>
</svg>
